<svg xmlns="http://www.w3.org/2000/svg" width="960" height="540" viewBox="0 0 960 540" role="img" aria-label="Pipe Deck mixer placeholder">
  <defs>
    <linearGradient id="bg" x1="0" y1="0" x2="1" y2="1">
      <stop offset="0%" stop-color="#1a1d24"/>
      <stop offset="100%" stop-color="#12151a"/>
    </linearGradient>
  </defs>
  <rect width="960" height="540" fill="url(#bg)"/>
  <rect x="0" y="0" width="960" height="40" fill="#0f1115"/>
  <text x="16" y="26" fill="#8b9cb3" font-family="system-ui,sans-serif" font-size="13">Pipe Deck  Mixer</text>
  <rect x="40" y="72" width="200" height="420" rx="8" fill="#1e2430" stroke="#2f3848"/>
  <rect x="280" y="72" width="200" height="420" rx="8" fill="#1e2430" stroke="#2f3848"/>
  <rect x="520" y="72" width="200" height="420" rx="8" fill="#1e2430" stroke="#2f3848"/>
  <rect x="760" y="72" width="160" height="420" rx="8" fill="#1e2430" stroke="#2f3848"/>
  <text x="140" y="110" fill="#8b9cb3" font-family="system-ui,sans-serif" font-size="11" text-anchor="middle">Firefox</text>
  <text x="380" y="110" fill="#8b9cb3" font-family="system-ui,sans-serif" font-size="11" text-anchor="middle">Discord</text>
  <text x="620" y="110" fill="#8b9cb3" font-family="system-ui,sans-serif" font-size="11" text-anchor="middle">System</text>
  <text x="840" y="110" fill="#8b9cb3" font-family="system-ui,sans-serif" font-size="11" text-anchor="middle">Mic</text>
  <rect x="118" y="140" width="44" height="280" rx="4" fill="#141820"/>
  <rect x="118" y="220" width="44" height="120" rx="4" fill="#4a90d9"/>
  <rect x="358" y="140" width="44" height="280" rx="4" fill="#141820"/>
  <rect x="358" y="180" width="44" height="160" rx="4" fill="#4a90d9"/>
  <rect x="598" y="140" width="44" height="280" rx="4" fill="#141820"/>
  <rect x="598" y="260" width="44" height="80" rx="4" fill="#4a90d9"/>
  <rect x="818" y="140" width="44" height="280" rx="4" fill="#141820"/>
  <rect x="818" y="200" width="44" height="140" rx="4" fill="#5cb85c"/>
  <rect x="128" y="440" width="24" height="24" rx="4" fill="#3a4254"/>
  <rect x="368" y="440" width="24" height="24" rx="4" fill="#c44"/>
  <text x="480" y="520" fill="#5a6a80" font-family="system-ui,sans-serif" font-size="14" text-anchor="middle">Screenshot placeholder  replace with real capture</text>
</svg>
